# xmcd
#
# Track frame offsets: 
#        150
#        14311
#        35603
#        49428
#        63952
#        83437
#        102963
#        123006
#        141762
#        158605
#        173456
#        191257
#        208846
#        228268
#        246184
#
# Disc length: 3590 seconds
#
# Revision: 0
# Processed by: cddbd v1.5.2PL0 Copyright (c) Steve Scherf et al.
# Submitted via: ExactAudioCopy v0.99pb4
#
DISCID=b70e040f
DTITLE=Naturally 7 - Wall of Sound
DYEAR=2009
DGENRE=rythm and blues
TTITLE0=Wall of Sound
TTITLE1=Feel It (In the Air Tonight)
TTITLE2=As Tears Go By
TTITLE3=Gone With the Wind
TTITLE4=Broken Wings
TTITLE5=More Than Words
TTITLE6=What I'm Lookin' 4
TTITLE7=Closer Now
TTITLE8=Heaven Knows
TTITLE9=It Is What It Is
TTITLE10=Let It Rain
TTITLE11=U Can't Hear Me
TTITLE12=Bridge Over Troubled Water
TTITLE13=Say You Love Me
TTITLE14=Amazing Grace
EXTD=
EXTT0=
EXTT1=
EXTT2=
EXTT3=
EXTT4=
EXTT5=
EXTT6=
EXTT7=
EXTT8=
EXTT9=
EXTT10=
EXTT11=
EXTT12=
EXTT13=
EXTT14=
PLAYORDER=
